<svg width="369" height="361" viewBox="0 0 369 361" fill="none" xmlns="http://www.w3.org/2000/svg">
<path d="M92 123.5L123 65.9093H185L216 123.5L185 181.091H123L92 123.5Z" fill="#085A6B"/>
<path d="M92 238.5L123 180.909H185L216 238.5L185 296.091H123L92 238.5Z" fill="#000C4C"/>
<path d="M0 180L31 121.976H93L124 180L93 238.024H31L0 180Z" fill="#E5E5E5"/>
<path d="M185 181L216 122.976H278L309 181L278 239.024H216L185 181Z" fill="#FFCDB2"/>
<path d="M186.949 295.091L157.267 239.5L186.949 183.909H246.051L275.733 239.5L246.051 295.091H186.949Z" stroke="#E5E5E5" stroke-width="4"/>
<path d="M32.1948 350.091L2.27134 294.5L32.1948 238.909H91.8052L121.729 294.5L91.8052 350.091H32.1948Z" stroke="#085A6B" stroke-width="4"/>
<path d="M62.1948 179.091L32.2713 123.5L62.1948 67.9093H121.805L151.729 123.5L121.805 179.091H62.1948Z" stroke="#7A306C" stroke-width="4"/>
<path d="M184 66.5L214.75 8.90931H276.25L307 66.5L276.25 124.091H214.75L184 66.5Z" fill="#7A306C"/>
<path d="M277.195 122.091L247.271 66.5L277.195 10.9093H336.805L366.729 66.5L336.805 122.091H277.195Z" stroke="#000C4C" stroke-width="4"/>
</svg>
