<svg width="322" height="100" viewBox="0 0 322 100" fill="none" xmlns="http://www.w3.org/2000/svg">
<path d="M50.1086 2.37367L87.4552 28.2299L84.7452 75.8309L44.6887 97.5758L7.34213 71.7196L10.052 24.1185L50.1086 2.37367Z" fill="#000C4C"/>
<path d="M61.7412 6.57096L99.6921 30.7604L97.2033 74.9321L56.7637 94.9144L18.8128 70.725L21.3016 26.5533L61.7412 6.57096Z" fill="#7A306C"/>
<path d="M68.6136 10.7486L99.9533 30.8247L97.8868 67.5021L64.4805 84.1034L33.1408 64.0273L35.2073 27.3499L68.6136 10.7486Z" fill="white"/>
<path d="M68.024 37.768C67.256 36.736 66.308 35.968 65.18 35.464C64.052 34.936 62.876 34.672 61.652 34.672C60.236 34.672 58.928 34.96 57.728 35.536C56.552 36.112 55.532 36.892 54.668 37.876C53.804 38.836 53.132 39.964 52.652 41.26C52.172 42.532 51.932 43.864 51.932 45.256C51.932 46.744 52.172 48.136 52.652 49.432C53.132 50.704 53.792 51.82 54.632 52.78C55.496 53.716 56.516 54.46 57.692 55.012C58.892 55.564 60.212 55.84 61.652 55.84C63.212 55.84 64.604 55.54 65.828 54.94C67.052 54.316 68.12 53.428 69.032 52.276L71.3 54.184C70.148 55.72 68.756 56.848 67.124 57.568C65.516 58.288 63.692 58.648 61.652 58.648C59.828 58.648 58.124 58.312 56.54 57.64C54.956 56.968 53.576 56.044 52.4 54.868C51.248 53.668 50.336 52.252 49.664 50.62C49.016 48.988 48.692 47.2 48.692 45.256C48.692 43.384 49.004 41.632 49.628 40C50.276 38.368 51.176 36.952 52.328 35.752C53.48 34.552 54.848 33.604 56.432 32.908C58.016 32.212 59.756 31.864 61.652 31.864C63.38 31.864 65.036 32.176 66.62 32.8C68.228 33.424 69.572 34.444 70.652 35.86L68.024 37.768ZM75.0117 30.784H77.8197V43.492H77.8917C78.0837 43.156 78.3477 42.832 78.6837 42.52C79.0197 42.184 79.4157 41.884 79.8717 41.62C80.3517 41.356 80.8797 41.14 81.4557 40.972C82.0317 40.804 82.6437 40.72 83.2917 40.72C84.3957 40.72 85.3437 40.888 86.1357 41.224C86.9517 41.56 87.6237 42.028 88.1517 42.628C88.6797 43.228 89.0637 43.96 89.3037 44.824C89.5677 45.664 89.6997 46.588 89.6997 47.596V58H86.8917V47.884C86.8917 46.468 86.5797 45.352 85.9557 44.536C85.3317 43.72 84.3597 43.312 83.0397 43.312C82.1277 43.312 81.3357 43.468 80.6637 43.78C80.0157 44.092 79.4757 44.536 79.0437 45.112C78.6357 45.688 78.3237 46.372 78.1077 47.164C77.9157 47.956 77.8197 48.832 77.8197 49.792V58H75.0117V30.784ZM95.0156 45.148C95.0156 44.38 94.9916 43.66 94.9436 42.988C94.8956 42.316 94.8716 41.704 94.8716 41.152H97.5356C97.5356 41.608 97.5476 42.064 97.5716 42.52C97.5956 42.976 97.6076 43.444 97.6076 43.924H97.6796C97.8716 43.516 98.1356 43.12 98.4716 42.736C98.8316 42.352 99.2516 42.016 99.7316 41.728C100.212 41.416 100.752 41.176 101.352 41.008C101.952 40.816 102.6 40.72 103.296 40.72C103.488 40.72 103.68 40.732 103.872 40.756C104.064 40.78 104.256 40.828 104.448 40.9L104.268 43.744C103.788 43.6 103.284 43.528 102.756 43.528C101.028 43.528 99.7676 44.092 98.9756 45.22C98.2076 46.324 97.8236 47.848 97.8236 49.792V58H95.0156V45.148ZM107.924 41.152H110.732V58H107.924V41.152ZM107.276 34.564C107.276 34.012 107.468 33.532 107.852 33.124C108.26 32.716 108.752 32.512 109.328 32.512C109.904 32.512 110.384 32.716 110.768 33.124C111.176 33.532 111.38 34.012 111.38 34.564C111.38 35.164 111.188 35.656 110.804 36.04C110.42 36.424 109.928 36.616 109.328 36.616C108.728 36.616 108.236 36.424 107.852 36.04C107.468 35.656 107.276 35.164 107.276 34.564ZM116.68 53.572C117.232 54.268 117.832 54.82 118.48 55.228C119.152 55.636 119.992 55.84 121 55.84C121.432 55.84 121.864 55.792 122.296 55.696C122.752 55.6 123.16 55.444 123.52 55.228C123.88 55.012 124.168 54.748 124.384 54.436C124.6 54.1 124.708 53.704 124.708 53.248C124.708 52.792 124.6 52.42 124.384 52.132C124.192 51.844 123.928 51.604 123.592 51.412C123.256 51.196 122.872 51.028 122.44 50.908C122.008 50.788 121.564 50.68 121.108 50.584C120.316 50.416 119.56 50.224 118.84 50.008C118.12 49.792 117.484 49.516 116.932 49.18C116.404 48.82 115.972 48.364 115.636 47.812C115.324 47.26 115.168 46.552 115.168 45.688C115.168 44.872 115.348 44.152 115.708 43.528C116.068 42.904 116.548 42.388 117.148 41.98C117.748 41.572 118.42 41.26 119.164 41.044C119.908 40.828 120.676 40.72 121.468 40.72C122.668 40.72 123.772 40.96 124.78 41.44C125.812 41.92 126.616 42.7 127.192 43.78L124.852 45.328C124.492 44.728 124.012 44.248 123.412 43.888C122.836 43.504 122.128 43.312 121.288 43.312C120.904 43.312 120.508 43.36 120.1 43.456C119.716 43.552 119.368 43.696 119.056 43.888C118.744 44.08 118.48 44.332 118.264 44.644C118.072 44.932 117.976 45.268 117.976 45.652C117.976 46.012 118.084 46.324 118.3 46.588C118.54 46.828 118.852 47.044 119.236 47.236C119.644 47.428 120.1 47.596 120.604 47.74C121.132 47.884 121.672 48.004 122.224 48.1C122.968 48.244 123.676 48.436 124.348 48.676C125.02 48.892 125.608 49.192 126.112 49.576C126.616 49.96 127.012 50.44 127.3 51.016C127.588 51.592 127.732 52.3 127.732 53.14C127.732 54.1 127.54 54.916 127.156 55.588C126.772 56.26 126.256 56.812 125.608 57.244C124.984 57.652 124.264 57.952 123.448 58.144C122.656 58.336 121.84 58.432 121 58.432C119.56 58.432 118.312 58.216 117.256 57.784C116.224 57.328 115.288 56.5 114.448 55.3L116.68 53.572ZM140.864 43.528H135.896V51.952C135.896 52.504 135.908 53.02 135.932 53.5C135.956 53.956 136.052 54.364 136.22 54.724C136.388 55.06 136.64 55.336 136.976 55.552C137.312 55.744 137.792 55.84 138.416 55.84C138.824 55.84 139.244 55.792 139.676 55.696C140.108 55.6 140.516 55.456 140.9 55.264L141.008 57.82C140.528 58.036 139.988 58.192 139.388 58.288C138.812 58.384 138.26 58.432 137.732 58.432C136.724 58.432 135.92 58.3 135.32 58.036C134.72 57.772 134.252 57.4 133.916 56.92C133.58 56.44 133.352 55.852 133.232 55.156C133.136 54.436 133.088 53.644 133.088 52.78V43.528H129.416V41.152H133.088V36.364H135.896V41.152H140.864V43.528ZM144.592 41.152H147.4V58H144.592V41.152ZM143.944 34.564C143.944 34.012 144.136 33.532 144.52 33.124C144.928 32.716 145.42 32.512 145.996 32.512C146.572 32.512 147.052 32.716 147.436 33.124C147.844 33.532 148.048 34.012 148.048 34.564C148.048 35.164 147.856 35.656 147.472 36.04C147.088 36.424 146.596 36.616 145.996 36.616C145.396 36.616 144.904 36.424 144.52 36.04C144.136 35.656 143.944 35.164 143.944 34.564ZM152.988 45.148C152.988 44.38 152.964 43.66 152.916 42.988C152.868 42.316 152.844 41.704 152.844 41.152H155.508C155.508 41.608 155.52 42.064 155.544 42.52C155.568 42.976 155.58 43.444 155.58 43.924H155.652C155.844 43.516 156.108 43.12 156.444 42.736C156.804 42.352 157.224 42.016 157.704 41.728C158.184 41.416 158.724 41.176 159.324 41.008C159.924 40.816 160.572 40.72 161.268 40.72C162.372 40.72 163.32 40.888 164.112 41.224C164.928 41.56 165.6 42.028 166.128 42.628C166.656 43.228 167.04 43.96 167.28 44.824C167.544 45.664 167.676 46.588 167.676 47.596V58H164.868V47.884C164.868 46.468 164.556 45.352 163.932 44.536C163.308 43.72 162.336 43.312 161.016 43.312C160.104 43.312 159.312 43.468 158.64 43.78C157.992 44.092 157.452 44.536 157.02 45.112C156.612 45.688 156.3 46.372 156.084 47.164C155.892 47.956 155.796 48.832 155.796 49.792V58H152.988V45.148ZM188.04 54.94C187.032 56.236 185.928 57.148 184.728 57.676C183.528 58.18 182.136 58.432 180.552 58.432C179.232 58.432 178.044 58.204 176.988 57.748C175.932 57.268 175.032 56.632 174.288 55.84C173.568 55.048 173.004 54.112 172.596 53.032C172.212 51.952 172.02 50.8 172.02 49.576C172.02 48.28 172.236 47.092 172.668 46.012C173.1 44.908 173.7 43.972 174.468 43.204C175.236 42.412 176.148 41.8 177.204 41.368C178.26 40.936 179.412 40.72 180.66 40.72C181.836 40.72 182.916 40.924 183.9 41.332C184.884 41.716 185.724 42.292 186.42 43.06C187.14 43.804 187.692 44.728 188.076 45.832C188.46 46.912 188.652 48.148 188.652 49.54V50.44H175.044C175.092 51.16 175.26 51.856 175.548 52.528C175.86 53.176 176.256 53.752 176.736 54.256C177.216 54.736 177.78 55.12 178.428 55.408C179.076 55.696 179.784 55.84 180.552 55.84C181.776 55.84 182.808 55.624 183.648 55.192C184.488 54.76 185.244 54.124 185.916 53.284L188.04 54.94ZM185.628 48.064C185.58 46.624 185.112 45.472 184.224 44.608C183.336 43.744 182.112 43.312 180.552 43.312C178.992 43.312 177.732 43.744 176.772 44.608C175.812 45.472 175.236 46.624 175.044 48.064H185.628ZM221.376 37.768C220.608 36.736 219.66 35.968 218.532 35.464C217.404 34.936 216.228 34.672 215.004 34.672C213.588 34.672 212.28 34.96 211.08 35.536C209.904 36.112 208.884 36.892 208.02 37.876C207.156 38.836 206.484 39.964 206.004 41.26C205.524 42.532 205.284 43.864 205.284 45.256C205.284 46.744 205.524 48.136 206.004 49.432C206.484 50.704 207.144 51.82 207.984 52.78C208.848 53.716 209.868 54.46 211.044 55.012C212.244 55.564 213.564 55.84 215.004 55.84C216.564 55.84 217.956 55.54 219.18 54.94C220.404 54.316 221.472 53.428 222.384 52.276L224.652 54.184C223.5 55.72 222.108 56.848 220.476 57.568C218.868 58.288 217.044 58.648 215.004 58.648C213.18 58.648 211.476 58.312 209.892 57.64C208.308 56.968 206.928 56.044 205.752 54.868C204.6 53.668 203.688 52.252 203.016 50.62C202.368 48.988 202.044 47.2 202.044 45.256C202.044 43.384 202.356 41.632 202.98 40C203.628 38.368 204.528 36.952 205.68 35.752C206.832 34.552 208.2 33.604 209.784 32.908C211.368 32.212 213.108 31.864 215.004 31.864C216.732 31.864 218.388 32.176 219.972 32.8C221.58 33.424 222.924 34.444 224.004 35.86L221.376 37.768ZM228.363 30.784H231.171V43.492H231.243C231.435 43.156 231.699 42.832 232.035 42.52C232.371 42.184 232.767 41.884 233.223 41.62C233.703 41.356 234.231 41.14 234.807 40.972C235.383 40.804 235.995 40.72 236.643 40.72C237.747 40.72 238.695 40.888 239.487 41.224C240.303 41.56 240.975 42.028 241.503 42.628C242.031 43.228 242.415 43.96 242.655 44.824C242.919 45.664 243.051 46.588 243.051 47.596V58H240.243V47.884C240.243 46.468 239.931 45.352 239.307 44.536C238.683 43.72 237.711 43.312 236.391 43.312C235.479 43.312 234.687 43.468 234.015 43.78C233.367 44.092 232.827 44.536 232.395 45.112C231.987 45.688 231.675 46.372 231.459 47.164C231.267 47.956 231.171 48.832 231.171 49.792V58H228.363V30.784ZM248.619 41.152H251.427V58H248.619V41.152ZM247.971 34.564C247.971 34.012 248.163 33.532 248.547 33.124C248.955 32.716 249.447 32.512 250.023 32.512C250.599 32.512 251.079 32.716 251.463 33.124C251.871 33.532 252.075 34.012 252.075 34.564C252.075 35.164 251.883 35.656 251.499 36.04C251.115 36.424 250.623 36.616 250.023 36.616C249.423 36.616 248.931 36.424 248.547 36.04C248.163 35.656 247.971 35.164 247.971 34.564ZM256.8 43.312C257.664 42.424 258.684 41.776 259.86 41.368C261.06 40.936 262.272 40.72 263.496 40.72C265.992 40.72 267.792 41.308 268.896 42.484C270 43.66 270.552 45.448 270.552 47.848V55.084C270.552 55.564 270.576 56.068 270.624 56.596C270.672 57.1 270.732 57.568 270.804 58H268.104C268.008 57.616 267.948 57.196 267.924 56.74C267.924 56.26 267.924 55.84 267.924 55.48H267.852C267.3 56.344 266.556 57.052 265.62 57.604C264.708 58.156 263.604 58.432 262.308 58.432C261.444 58.432 260.628 58.324 259.86 58.108C259.116 57.892 258.456 57.58 257.88 57.172C257.328 56.74 256.884 56.212 256.548 55.588C256.212 54.964 256.044 54.244 256.044 53.428C256.044 52.036 256.404 50.944 257.124 50.152C257.844 49.36 258.732 48.772 259.788 48.388C260.868 48.004 262.02 47.764 263.244 47.668C264.492 47.572 265.632 47.524 266.664 47.524H267.744V47.02C267.744 45.796 267.372 44.872 266.628 44.248C265.908 43.624 264.888 43.312 263.568 43.312C262.656 43.312 261.756 43.468 260.868 43.78C260.004 44.068 259.236 44.524 258.564 45.148L256.8 43.312ZM264.936 49.9C263.136 49.9 261.708 50.152 260.652 50.656C259.596 51.16 259.068 51.988 259.068 53.14C259.068 54.196 259.416 54.952 260.112 55.408C260.832 55.84 261.72 56.056 262.776 56.056C263.592 56.056 264.3 55.924 264.9 55.66C265.524 55.372 266.04 55 266.448 54.544C266.856 54.088 267.168 53.56 267.384 52.96C267.6 52.336 267.72 51.676 267.744 50.98V49.9H264.936ZM275.684 45.148C275.684 44.38 275.66 43.66 275.612 42.988C275.564 42.316 275.54 41.704 275.54 41.152H278.204C278.204 41.608 278.216 42.064 278.24 42.52C278.264 42.976 278.276 43.444 278.276 43.924H278.348C278.54 43.516 278.804 43.12 279.14 42.736C279.5 42.352 279.92 42.016 280.4 41.728C280.88 41.416 281.42 41.176 282.02 41.008C282.62 40.816 283.268 40.72 283.964 40.72C285.068 40.72 286.016 40.888 286.808 41.224C287.624 41.56 288.296 42.028 288.824 42.628C289.352 43.228 289.736 43.96 289.976 44.824C290.24 45.664 290.372 46.588 290.372 47.596V58H287.564V47.884C287.564 46.468 287.252 45.352 286.628 44.536C286.004 43.72 285.032 43.312 283.712 43.312C282.8 43.312 282.008 43.468 281.336 43.78C280.688 44.092 280.148 44.536 279.716 45.112C279.308 45.688 278.996 46.372 278.78 47.164C278.588 47.956 278.492 48.832 278.492 49.792V58H275.684V45.148ZM312.499 57.244C312.499 60.316 311.707 62.644 310.123 64.228C308.563 65.836 306.295 66.64 303.319 66.64C301.663 66.64 300.163 66.4 298.819 65.92C297.499 65.44 296.239 64.612 295.039 63.436L297.055 61.132C297.943 62.092 298.879 62.812 299.863 63.292C300.871 63.796 302.023 64.048 303.319 64.048C304.567 64.048 305.599 63.856 306.415 63.472C307.255 63.112 307.915 62.608 308.395 61.96C308.875 61.336 309.211 60.616 309.403 59.8C309.595 58.984 309.691 58.132 309.691 57.244V55.084H309.619C308.947 56.164 308.071 56.956 306.991 57.46C305.911 57.964 304.807 58.216 303.679 58.216C302.359 58.216 301.147 58 300.043 57.568C298.939 57.136 297.991 56.536 297.199 55.768C296.407 55 295.795 54.088 295.363 53.032C294.931 51.976 294.715 50.824 294.715 49.576C294.715 48.208 294.931 46.972 295.363 45.868C295.795 44.764 296.395 43.84 297.163 43.096C297.955 42.328 298.903 41.74 300.007 41.332C301.111 40.924 302.335 40.72 303.679 40.72C304.255 40.72 304.831 40.792 305.407 40.936C305.983 41.056 306.535 41.26 307.063 41.548C307.615 41.812 308.107 42.16 308.539 42.592C308.971 43 309.331 43.48 309.619 44.032H309.691V41.152H312.499V57.244ZM297.739 49.576C297.739 50.44 297.895 51.244 298.207 51.988C298.519 52.708 298.939 53.344 299.467 53.896C300.019 54.424 300.655 54.844 301.375 55.156C302.095 55.468 302.863 55.624 303.679 55.624C304.639 55.624 305.491 55.456 306.235 55.12C306.979 54.784 307.603 54.34 308.107 53.788C308.635 53.212 309.031 52.564 309.295 51.844C309.559 51.1 309.691 50.32 309.691 49.504C309.691 48.592 309.547 47.764 309.259 47.02C308.971 46.252 308.563 45.592 308.035 45.04C307.507 44.488 306.871 44.068 306.127 43.78C305.383 43.468 304.567 43.312 303.679 43.312C302.791 43.312 301.975 43.48 301.231 43.816C300.511 44.128 299.887 44.572 299.359 45.148C298.855 45.7 298.459 46.36 298.171 47.128C297.883 47.872 297.739 48.688 297.739 49.576Z" fill="#000C4C"/>
</svg>
