<svg width="20" height="20" viewBox="0 0 20 20" fill="none" xmlns="http://www.w3.org/2000/svg">
<path d="M10 0C4.48593 0 0 4.48593 0 10C0 15.5141 4.48593 20 10 20C15.5141 20 20 15.5141 20 10C20 4.48593 15.5141 0 10 0ZM10 18.6991C5.20335 18.6991 1.30098 14.7967 1.30098 10C1.30098 5.20328 5.20335 1.30098 10 1.30098C14.7966 1.30098 18.699 5.20335 18.699 10C18.699 14.7966 14.7967 18.6991 10 18.6991Z" fill="black"/>
<path d="M14.0794 11.6295C13.7767 11.436 13.3745 11.5244 13.1809 11.827C12.5525 12.8094 11.4822 13.3959 10.3177 13.3959C8.44515 13.3959 6.92177 11.8725 6.92177 9.99995C6.92177 8.12741 8.44515 6.60396 10.3177 6.60396C11.4476 6.60396 12.5005 7.16389 13.1342 8.10175C13.3353 8.39931 13.7395 8.47766 14.0374 8.27652C14.335 8.07544 14.4133 7.67105 14.2121 7.37334C13.3363 6.07692 11.8803 5.30298 10.3177 5.30298C7.7278 5.30298 5.62079 7.40999 5.62079 9.99995C5.62079 12.5899 7.7278 14.6969 10.3177 14.6969C11.9281 14.6969 13.4082 13.8861 14.2769 12.528C14.4704 12.2254 14.382 11.8231 14.0794 11.6295Z" fill="black"/>
</svg>
