<svg width="35" height="35" viewBox="0 0 35 35" fill="none" xmlns="http://www.w3.org/2000/svg">
<path d="M17.48 0C19.9039 0 22.1747 0.459477 24.2922 1.37843C26.41 2.29738 28.2611 3.54929 29.8459 5.13415C31.4308 6.71901 32.6827 8.57024 33.6016 10.6878C34.5203 12.8054 34.9799 15.0762 34.9799 17.5001C34.9799 19.9239 34.5203 22.1948 33.6016 24.3123C32.6827 26.43 31.4308 28.2811 29.8459 29.866C28.2611 31.4508 26.4098 32.7027 24.2922 33.6216C22.1746 34.5406 19.9039 35 17.48 35C15.0561 35 12.7854 34.5406 10.6678 33.6218C8.55018 32.7028 6.69896 31.4509 5.11409 29.8661C3.52923 28.2812 2.28398 26.43 1.37835 24.3124C0.472715 22.1948 0.0198975 19.924 0.0198975 17.5001C0.0198975 15.0762 0.472715 12.8054 1.37835 10.6878C2.28398 8.57024 3.52923 6.71901 5.11409 5.13415C6.69896 3.54929 8.55018 2.29738 10.6678 1.37843C12.7854 0.459477 15.0561 0 17.48 0ZM17.48 1.91782C15.3225 1.91782 13.2981 2.32402 11.4069 3.13643C9.51575 3.94884 7.86429 5.0609 6.45257 6.47263C5.04084 7.88435 3.92878 9.5358 3.11637 11.427C2.30396 13.3182 1.89776 15.3425 1.89776 17.5001C1.89776 19.6575 2.30396 21.6819 3.11637 23.5731C3.92878 25.4644 5.04084 27.1158 6.45257 28.5276C7.86429 29.9392 9.51575 31.0514 11.4069 31.8638C13.2981 32.6761 15.3225 33.0824 17.48 33.0824C19.6375 33.0824 21.6619 32.6761 23.5532 31.8638C25.4443 31.0516 27.0958 29.9392 28.5074 28.5276C29.9192 27.1158 31.0312 25.4644 31.8436 23.5731C32.6561 21.6818 33.0623 19.6574 33.0623 17.5001C33.0623 15.3427 32.6561 13.3182 31.8436 11.427C31.0314 9.5358 29.9192 7.88435 28.5074 6.47263C27.0958 5.0609 25.4443 3.94884 23.5532 3.13643C21.6619 2.32402 19.6375 1.91782 17.48 1.91782ZM21.9549 20.3769C23.6329 19.7907 24.472 18.6854 24.472 17.0606C24.472 16.2082 24.3322 15.5356 24.0525 15.0429C23.7728 14.5501 23.3267 14.1439 22.714 13.8243C22.421 13.6644 22.0748 13.5712 21.6752 13.5446C21.2757 13.5179 20.8496 13.5113 20.3966 13.5246C19.9438 13.5379 19.4645 13.5645 18.9583 13.6045C18.4522 13.6445 17.9461 13.6644 17.4402 13.6644C16.9341 13.6644 16.428 13.6445 15.9219 13.6045C15.4158 13.5645 14.9364 13.5379 14.4836 13.5246C14.0307 13.5113 13.6046 13.5179 13.205 13.5446C12.8055 13.5712 12.4592 13.6644 12.1662 13.8243C11.5536 14.1439 11.1141 14.5501 10.8477 15.0429C10.5813 15.5356 10.4481 16.2082 10.4481 17.0606C10.4481 18.6854 11.2872 19.7908 12.9653 20.3769C13.2583 20.4567 13.5779 20.5365 13.9242 20.6166C14.2172 20.6697 14.5834 20.7231 15.0229 20.7762C15.4624 20.8295 15.9752 20.8563 16.5612 20.8563H18.3191C18.8785 20.8563 19.3846 20.8297 19.8376 20.7762C20.2905 20.7231 20.6767 20.6696 20.9963 20.6166C21.3689 20.5366 21.6885 20.4567 21.9549 20.3769ZM26.7494 14.5834C26.7494 15.4358 26.6561 16.2415 26.4698 17.0006C26.2833 17.7596 25.9371 18.4457 25.431 19.0583C24.9249 19.671 24.2257 20.1771 23.3333 20.5766C22.441 20.9762 21.3024 21.2292 19.9172 21.3358C20.1303 21.4422 20.4034 21.5755 20.7364 21.7352C21.0693 21.8951 21.3557 22.2014 21.5954 22.6542C21.7285 22.9471 21.8151 23.3734 21.855 23.9327C21.895 24.492 21.915 25.0648 21.915 25.6507C21.915 26.2368 21.9083 26.776 21.895 27.2687C21.8817 27.7616 21.9017 28.0614 21.955 28.1678C22.0615 28.3809 22.2147 28.5673 22.4144 28.727C22.6142 28.8868 22.7807 29.0066 22.9138 29.0866C23.0469 29.1667 23.0868 29.2665 23.0337 29.3864C22.9804 29.5063 22.794 29.5796 22.4743 29.6059C22.3146 29.6059 22.1147 29.5796 21.875 29.5261C21.6353 29.4728 21.4087 29.3796 21.1958 29.2464C20.9828 29.1132 20.8029 28.9467 20.6564 28.7472C20.5099 28.5472 20.4367 28.2876 20.4367 27.9678V24.6915C20.4367 24.3187 20.3501 24.0523 20.1769 23.8925C20.004 23.7327 19.8242 23.6261 19.6375 23.5729V27.888C19.6375 28.6604 19.7307 29.1665 19.9172 29.4062C19.9971 29.5129 20.0704 29.6261 20.1369 29.7459C20.2034 29.8658 20.2435 29.9656 20.2568 30.0456C20.2702 30.1254 20.2235 30.1721 20.1167 30.1855C20.0103 30.1987 19.8106 30.1654 19.5174 30.0857C18.9581 29.9525 18.5585 29.6462 18.3189 29.1667C18.0792 28.6873 17.9593 28.1812 17.9593 27.6484V23.4133H17.0805V27.6484C17.0805 28.1812 16.9673 28.6873 16.7408 29.1667C16.5144 29.6462 16.1082 29.9525 15.5222 30.0857C15.2292 30.1656 15.0361 30.1987 14.9429 30.1855C14.8497 30.1722 14.8031 30.1254 14.8031 30.0456C14.8031 29.9656 14.843 29.8658 14.9229 29.7459C15.0028 29.6261 15.0827 29.5129 15.1626 29.4062C15.2159 29.2998 15.2759 29.1132 15.3424 28.8469C15.409 28.5806 15.4423 28.2609 15.4423 27.888V23.5729C15.2559 23.626 15.0827 23.7325 14.9229 23.8925C14.7631 24.0523 14.6832 24.3186 14.6832 24.6916V27.9679C14.6832 28.2875 14.6099 28.5472 14.4634 28.7471C14.3169 28.947 14.1371 29.1132 13.9241 29.2464C13.711 29.3795 13.4846 29.473 13.2448 29.526C13.0051 29.5793 12.8053 29.606 12.6455 29.606C12.3259 29.5795 12.1394 29.5063 12.0862 29.3865C12.0329 29.2666 12.0728 29.1666 12.206 29.0868C12.3392 29.0067 12.5057 28.8868 12.7054 28.7269C12.9052 28.5673 13.0584 28.3807 13.1649 28.1678C13.2182 28.0346 13.2382 27.6817 13.2249 27.1089C13.2115 26.5362 13.2049 25.9035 13.2049 25.2112C12.9918 25.2911 12.7121 25.3444 12.3658 25.371C12.0196 25.3974 11.6333 25.371 11.2072 25.2909C10.488 25.1577 9.94193 24.9249 9.56902 24.5917C9.19611 24.2587 8.83652 23.7326 8.49025 23.0135C8.30379 22.6672 8.09736 22.3809 7.87095 22.1544C7.64454 21.9281 7.44477 21.7483 7.27164 21.6151C7.0985 21.4819 6.96532 21.3687 6.87209 21.2755C6.77886 21.1823 6.7722 21.0957 6.85211 21.0157C7.01193 20.8293 7.23168 20.7494 7.51136 20.7759C7.79104 20.8025 7.95752 20.8425 8.01079 20.8957C8.33043 21.0289 8.65007 21.3086 8.9697 21.7349C9.28934 22.1613 9.62229 22.5208 9.96856 22.8136C10.1284 22.9467 10.3282 23.0799 10.5679 23.2131C10.8076 23.3462 11.074 23.4397 11.367 23.4927C11.66 23.546 11.9796 23.546 12.3259 23.4927C12.6722 23.4396 13.0184 23.293 13.3647 23.0534C13.4446 22.7069 13.5711 22.4341 13.7443 22.2341C13.9174 22.0343 14.1039 21.8746 14.3036 21.7547C14.5034 21.6348 14.6899 21.5416 14.863 21.4749C15.0361 21.4084 15.176 21.3484 15.2825 21.2952C13.8175 21.1887 12.6189 20.9425 11.6866 20.5563C10.7543 20.17 10.0152 19.6771 9.46913 19.0778C8.92309 18.4785 8.55018 17.7926 8.35041 17.0201C8.15063 16.2476 8.05075 15.4352 8.05075 14.5829C8.05075 13.7039 8.18393 12.9181 8.45029 12.2256C8.71666 11.533 9.08957 10.9204 9.56902 10.3876C9.35593 9.74837 9.28268 9.0758 9.34927 8.36994C9.41586 7.66408 9.5557 7.03147 9.76879 6.4721C10.781 6.52538 11.6267 6.73847 12.3059 7.11138C12.9851 7.48428 13.4579 7.7906 13.7243 8.03033C14.8696 7.71069 16.055 7.55088 17.2802 7.55088H17.5599C18.7052 7.55088 19.8109 7.68406 20.8761 7.95042C21.1691 7.71069 21.6485 7.41769 22.3145 7.07142C22.9803 6.72515 23.8063 6.52538 24.7916 6.4721C25.0047 7.00483 25.1445 7.60415 25.2111 8.27006C25.2778 8.93596 25.2312 9.57524 25.0714 10.1879C25.6041 10.7206 26.0167 11.3532 26.3099 12.0857C26.6029 12.8187 26.7494 13.6511 26.7494 14.5834ZM17.4001 13.6644H17.4401H17.48H17.4001ZM22.5542 16.7809C22.5542 17.1538 22.4545 17.4734 22.2546 17.7398C22.0547 18.0062 21.8084 18.1393 21.5154 18.1393C21.2225 18.1393 20.9828 18.0062 20.7962 17.7398C20.6099 17.4734 20.5165 17.1537 20.5165 16.7809C20.5165 16.408 20.61 16.0883 20.7962 15.822C20.9826 15.5556 21.2223 15.4224 21.5154 15.4224C21.8085 15.4224 22.0549 15.5556 22.2546 15.822C22.4544 16.0883 22.5542 16.408 22.5542 16.7809ZM14.7231 16.7809C14.7231 17.1538 14.6233 17.4734 14.4235 17.7398C14.2237 18.0062 13.9773 18.1393 13.6843 18.1393C13.3913 18.1393 13.1516 18.0062 12.9651 17.7398C12.7787 17.4734 12.6855 17.1537 12.6855 16.7809C12.6855 16.408 12.7787 16.0883 12.9651 15.822C13.1516 15.5556 13.3913 15.4224 13.6843 15.4224C13.9773 15.4224 14.2237 15.5556 14.4235 15.822C14.6233 16.0883 14.7231 16.408 14.7231 16.7809Z" fill="#010002"/>
</svg>
