<svg width="37" height="37" viewBox="0 0 37 37" fill="none" xmlns="http://www.w3.org/2000/svg">
<g clip-path="url(#clip0)">
<path d="M19.4845 0.736835C9.84349 0.330542 1.66946 7.84349 1.26316 17.4845C0.856872 27.1255 8.36982 35.2995 18.0108 35.7058C27.6518 36.1121 35.8258 28.5991 36.2321 18.9582C36.6384 9.31716 29.1255 1.14313 19.4845 0.736835ZM18.0951 33.7054C9.55725 33.3456 2.9038 26.1066 3.2636 17.5688C3.62341 9.03092 10.8623 2.37747 19.4002 2.73727C27.938 3.09708 34.5915 10.336 34.2317 18.8738C33.8719 27.4117 26.633 34.0652 18.0951 33.7054Z" fill="black"/>
<path d="M25.4756 9.93204L12.7413 9.39538C11.5769 9.34631 10.5898 10.2536 10.5407 11.418L9.99743 24.3097C9.94836 25.474 10.8556 26.4612 12.02 26.5102L24.7543 27.0469C25.9187 27.0959 26.9058 26.1887 26.9549 25.0243L27.4982 12.1326C27.5473 10.9683 26.64 9.9811 25.4756 9.93204ZM24.9545 24.94C24.9519 25.0013 24.9 25.049 24.8386 25.0464L12.1043 24.5098C12.043 24.5072 11.9953 24.4553 11.9979 24.394L12.5411 11.5023C12.5437 11.4409 12.5956 11.3932 12.657 11.3958L25.3913 11.9325C25.4526 11.9351 25.5003 11.9869 25.4978 12.0483L24.9545 24.94Z" fill="black"/>
<path d="M24.1699 13.3824L21.8788 13.2859L21.7903 15.3876L24.0813 15.4841L24.1699 13.3824Z" fill="black"/>
<path d="M18.6169 21.327C19.8643 21.3795 20.9182 20.4109 20.9708 19.1634C21.0233 17.916 20.0547 16.8621 18.8072 16.8095C17.5598 16.757 16.5059 17.7256 16.4533 18.9731C16.4008 20.2205 17.3694 21.2744 18.6169 21.327Z" fill="black"/>
<path d="M22.3151 19.2101C22.2313 21.1999 20.5503 22.7449 18.5605 22.6611C16.5708 22.5772 15.0257 20.8962 15.1096 18.9064L15.1821 17.3013L13.571 17.2334L13.3192 23.2082L23.7373 23.6472L23.9891 17.6724L22.3911 17.6051L22.3151 19.2101Z" fill="black"/>
</g>
<defs>
<clipPath id="clip0">
<rect width="35" height="35" fill="white" transform="translate(2) rotate(2.41314)"/>
</clipPath>
</defs>
</svg>
