<svg width="35" height="35" viewBox="0 0 35 35" fill="none" xmlns="http://www.w3.org/2000/svg">
<path d="M17.5 0C7.85045 0 0 7.85045 0 17.5C0 27.1495 7.85045 35 17.5 35C27.1495 35 35 27.1495 35 17.5C35 7.85045 27.1495 0 17.5 0ZM17.5 32.9978C8.95445 32.9978 2.00221 26.0454 2.00221 17.5C2.00221 8.95456 8.95445 2.00221 17.5 2.00221C26.0456 2.00221 32.9978 8.95456 32.9978 17.5C32.9978 26.0454 26.0456 32.9978 17.5 32.9978Z" fill="black"/>
<path d="M12.4945 13.4724C11.9415 13.4724 11.4933 13.9206 11.4933 14.4735V22.7509C11.4933 23.3038 11.9415 23.752 12.4945 23.752C13.0474 23.752 13.4956 23.3038 13.4956 22.7509V14.4735C13.4956 13.9206 13.0474 13.4724 12.4945 13.4724Z" fill="black"/>
<path d="M12.4945 8.80054C12.2308 8.80054 11.9728 8.90732 11.787 9.0942C11.6001 9.27996 11.4933 9.53802 11.4933 9.80164C11.4933 10.0653 11.6001 10.3232 11.787 10.5102C11.9728 10.696 12.2308 10.8028 12.4945 10.8028C12.7581 10.8028 13.0161 10.696 13.2019 10.5102C13.3888 10.3232 13.4956 10.0653 13.4956 9.80164C13.4956 9.53802 13.3888 9.27996 13.2019 9.0942C13.0161 8.90732 12.7581 8.80054 12.4945 8.80054Z" fill="black"/>
<path d="M21.1429 14.2511C20.0951 14.2511 19.1253 14.5888 18.3343 15.1597V14.4735C18.3343 13.9206 17.8861 13.4724 17.3332 13.4724C16.7802 13.4724 16.3321 13.9206 16.3321 14.4735V22.7509C16.3321 23.3038 16.7802 23.752 17.3332 23.752C17.8861 23.752 18.3343 23.3038 18.3343 22.7509V19.0619C18.3343 17.5132 19.5942 16.2533 21.1429 16.2533C22.6916 16.2533 23.9516 17.5132 23.9516 19.0619V22.9734C23.9516 23.5263 24.3998 23.9745 24.9527 23.9745C25.5056 23.9745 25.9538 23.5263 25.9538 22.9734V19.0619C25.9538 16.4092 23.7956 14.2511 21.1429 14.2511Z" fill="black"/>
</svg>
