<svg width="35" height="35" viewBox="0 0 35 35" fill="none" xmlns="http://www.w3.org/2000/svg">
<path d="M25.0043 14.0206C25.0043 13.844 25.0011 13.669 24.9932 13.4956C25.7489 12.9324 26.4043 12.2277 26.923 11.4211C26.2293 11.7329 25.4848 11.9413 24.702 12.0288C25.5007 11.5372 26.1132 10.7513 26.4027 9.80786C25.6549 10.2613 24.8277 10.5858 23.9479 10.7545C23.2432 9.95261 22.2377 9.44197 21.1256 9.42286C18.9906 9.38786 17.2597 11.192 17.2597 13.4526C17.2597 13.774 17.2931 14.0858 17.3599 14.3865C14.1447 14.1797 11.2954 12.506 9.38945 9.98286C9.05695 10.5874 8.86605 11.2938 8.86605 12.0511C8.86605 13.4829 9.54855 14.7556 10.5858 15.5065C9.95105 15.4779 9.35605 15.2854 8.83425 14.9704C8.83425 14.9879 8.83425 15.0054 8.83425 15.0229C8.83425 17.0243 10.1675 18.7011 11.9365 19.0924C11.6119 19.1847 11.2699 19.2324 10.9183 19.2309C10.6685 19.2293 10.4267 19.2022 10.1912 19.1513C10.6828 20.7915 12.1115 21.9895 13.8026 22.0292C12.4789 23.1269 10.8117 23.7824 9.00124 23.7776C8.68939 23.7776 8.3808 23.757 8.07849 23.7188C9.79035 24.8929 11.8219 25.5769 14.0062 25.5769C21.116 25.5786 25.0043 19.3899 25.0043 14.0206Z" fill="black"/>
<path d="M35 17.5C35 7.8352 27.1647 0 17.5 0C7.8352 0 0 7.8352 0 17.5C0 27.1647 7.8352 35 17.5 35C27.1647 35 35 27.1647 35 17.5ZM1.5909 17.5C1.5909 8.7134 8.7134 1.5909 17.5 1.5909C26.2866 1.5909 33.4091 8.7134 33.4091 17.5C33.4091 26.2866 26.2866 33.4091 17.5 33.4091C8.7134 33.4091 1.5909 26.2866 1.5909 17.5Z" fill="black"/>
</svg>
